<?xml version="1.0" encoding="UTF-8"?>
<svg width="16px" height="16px" viewBox="0 0 16 16" version="1.1" xmlns="http://www.w3.org/2000/svg" xmlns:xlink="http://www.w3.org/1999/xlink" xmlns:sketch="http://www.bohemiancoding.com/sketch/ns">
    <g id="Page-1" stroke="transparent" stroke-width="1" fill="none" fill-rule="evenodd" sketch:type="MSPage">
        <g id="invalid" sketch:type="MSLayerGroup" fill="#CB0300">
            <g id="Page-1" sketch:type="MSShapeGroup">
                <g id="cancel">
                    <path d="M12.0128,10.8872 L9.1256,8 L12.0128,5.1128 L10.888,3.988 L8.0008,6.8752 L5.1136,3.988 L3.9888,5.1128 L6.876,8 L3.9888,10.8872 L5.1136,12.012 L8.0008,9.1248 L10.888,12.012 L12.0128,10.8872 L12.0128,10.8872 Z M8,0.0128 C12.4248,0.0128 15.9872,3.5752 15.9872,8 C15.9872,12.4248 12.4248,15.9872 8,15.9872 C3.5752,15.9872 0.0128,12.4248 0.0128,8 C0.0128,3.5752 3.5752,0.0128 8,0.0128 L8,0.0128 L8,0.0128 Z" id="Shape"></path>
                </g>
            </g>
        </g>
    </g>
</svg>